<mxfile host="app.diagrams.net" modified="2023-02-05T13:53:51.423Z" agent="5.0 (Windows)" etag="5SzRhv9wHWgvSvSz2IBB" version="20.8.16" type="github">
  <diagram name="Page-1" id="4xvyYyQlbik1crB274-S">
    <mxGraphModel dx="4200" dy="951" grid="1" gridSize="10" guides="1" tooltips="1" connect="1" arrows="1" fold="1" page="1" pageScale="1" pageWidth="827" pageHeight="1169" math="0" shadow="0">
      <root>
        <mxCell id="0" />
        <mxCell id="1" parent="0" />
        <mxCell id="G6zWwBHuISHWSXFcCj6n-1" style="edgeStyle=none;rounded=0;orthogonalLoop=1;jettySize=auto;html=1;exitX=1;exitY=0.3333333333333333;exitDx=0;exitDy=0;exitPerimeter=0;entryX=0.032;entryY=0.371;entryDx=0;entryDy=0;entryPerimeter=0;fontSize=18;endArrow=none;endFill=0;" edge="1" parent="1" source="G6zWwBHuISHWSXFcCj6n-3" target="G6zWwBHuISHWSXFcCj6n-4">
          <mxGeometry relative="1" as="geometry" />
        </mxCell>
        <mxCell id="G6zWwBHuISHWSXFcCj6n-2" style="edgeStyle=none;rounded=0;orthogonalLoop=1;jettySize=auto;html=1;entryX=0;entryY=0.5;entryDx=0;entryDy=0;fontSize=18;endArrow=none;endFill=0;" edge="1" parent="1" target="G6zWwBHuISHWSXFcCj6n-17">
          <mxGeometry relative="1" as="geometry">
            <mxPoint x="160" y="2220" as="sourcePoint" />
          </mxGeometry>
        </mxCell>
        <mxCell id="G6zWwBHuISHWSXFcCj6n-3" value="&lt;div&gt;Organizateur&lt;/div&gt;&lt;div&gt;&lt;br&gt;&lt;/div&gt;" style="html=1;overflow=block;blockSpacing=1;shape=umlActor;labelPosition=center;verticalLabelPosition=bottom;verticalAlign=top;whiteSpace=nowrap;fontSize=16.7;fontColor=#333333;align=center;spacing=0;strokeColor=#5e5e5e;strokeOpacity=100;rounded=1;absoluteArcSize=1;arcSize=9;strokeWidth=2.3;lucidId=wAitfE4UTxwo;" vertex="1" parent="1">
          <mxGeometry x="100" y="2170" width="60" height="135" as="geometry" />
        </mxCell>
        <mxCell id="G6zWwBHuISHWSXFcCj6n-4" value="&lt;font style=&quot;font-size: 14px;&quot;&gt;Consulter les statistiques des ventes &lt;/font&gt;" style="html=1;overflow=block;blockSpacing=1;whiteSpace=wrap;ellipse;fontSize=13;spacing=3.8;strokeColor=#5e5e5e;strokeOpacity=100;rounded=1;absoluteArcSize=1;arcSize=9;strokeWidth=2.3;lucidId=.BitsejxpJ_f;" vertex="1" parent="1">
          <mxGeometry x="575" y="1970" width="214" height="90" as="geometry" />
        </mxCell>
        <mxCell id="G6zWwBHuISHWSXFcCj6n-5" style="edgeStyle=none;rounded=0;orthogonalLoop=1;jettySize=auto;html=1;exitX=0;exitY=0.5;exitDx=0;exitDy=0;entryX=1;entryY=0.3333333333333333;entryDx=0;entryDy=0;entryPerimeter=0;fontSize=18;endArrow=none;endFill=0;" edge="1" parent="1" source="G6zWwBHuISHWSXFcCj6n-6" target="G6zWwBHuISHWSXFcCj6n-3">
          <mxGeometry relative="1" as="geometry" />
        </mxCell>
        <mxCell id="G6zWwBHuISHWSXFcCj6n-6" value="Gestion d&#39;eveneenmts" style="html=1;overflow=block;blockSpacing=1;whiteSpace=wrap;ellipse;fontSize=13;spacing=3.8;strokeColor=#5e5e5e;strokeOpacity=100;rounded=1;absoluteArcSize=1;arcSize=9;strokeWidth=2.3;lucidId=.BitsejxpJ_f;" vertex="1" parent="1">
          <mxGeometry x="457.5" y="2240" width="195" height="90" as="geometry" />
        </mxCell>
        <mxCell id="G6zWwBHuISHWSXFcCj6n-7" style="edgeStyle=none;rounded=0;orthogonalLoop=1;jettySize=auto;html=1;exitX=0;exitY=0.5;exitDx=0;exitDy=0;entryX=1;entryY=0.5;entryDx=0;entryDy=0;fontSize=14;endArrow=block;endFill=0;" edge="1" parent="1" source="G6zWwBHuISHWSXFcCj6n-8" target="G6zWwBHuISHWSXFcCj6n-6">
          <mxGeometry relative="1" as="geometry" />
        </mxCell>
        <mxCell id="G6zWwBHuISHWSXFcCj6n-8" value="Creer évenement" style="html=1;overflow=block;blockSpacing=1;whiteSpace=wrap;ellipse;fontSize=13;spacing=3.8;strokeColor=#5e5e5e;strokeOpacity=100;rounded=1;absoluteArcSize=1;arcSize=9;strokeWidth=2.3;lucidId=.BitsejxpJ_f;" vertex="1" parent="1">
          <mxGeometry x="875" y="2240" width="195" height="90" as="geometry" />
        </mxCell>
        <mxCell id="G6zWwBHuISHWSXFcCj6n-9" style="edgeStyle=none;rounded=0;orthogonalLoop=1;jettySize=auto;html=1;exitX=0;exitY=0.5;exitDx=0;exitDy=0;entryX=0.922;entryY=0.844;entryDx=0;entryDy=0;entryPerimeter=0;fontSize=18;endArrow=block;endFill=0;" edge="1" parent="1" source="G6zWwBHuISHWSXFcCj6n-10" target="G6zWwBHuISHWSXFcCj6n-6">
          <mxGeometry relative="1" as="geometry" />
        </mxCell>
        <mxCell id="G6zWwBHuISHWSXFcCj6n-10" value="modifier evenement" style="html=1;overflow=block;blockSpacing=1;whiteSpace=wrap;ellipse;fontSize=13;spacing=3.8;strokeColor=#5e5e5e;strokeOpacity=100;rounded=1;absoluteArcSize=1;arcSize=9;strokeWidth=2.3;lucidId=.BitsejxpJ_f;" vertex="1" parent="1">
          <mxGeometry x="815" y="2340" width="195" height="90" as="geometry" />
        </mxCell>
        <mxCell id="G6zWwBHuISHWSXFcCj6n-11" style="edgeStyle=none;rounded=0;orthogonalLoop=1;jettySize=auto;html=1;exitX=0;exitY=0.5;exitDx=0;exitDy=0;entryX=0.93;entryY=0.178;entryDx=0;entryDy=0;entryPerimeter=0;fontSize=18;endArrow=block;endFill=0;" edge="1" parent="1" source="G6zWwBHuISHWSXFcCj6n-12" target="G6zWwBHuISHWSXFcCj6n-6">
          <mxGeometry relative="1" as="geometry" />
        </mxCell>
        <mxCell id="G6zWwBHuISHWSXFcCj6n-12" value="Supprimer évenement " style="html=1;overflow=block;blockSpacing=1;whiteSpace=wrap;ellipse;fontSize=13;spacing=3.8;strokeColor=#5e5e5e;strokeOpacity=100;rounded=1;absoluteArcSize=1;arcSize=9;strokeWidth=2.3;lucidId=.BitsejxpJ_f;" vertex="1" parent="1">
          <mxGeometry x="870" y="2130" width="195" height="90" as="geometry" />
        </mxCell>
        <mxCell id="G6zWwBHuISHWSXFcCj6n-13" style="edgeStyle=none;rounded=0;orthogonalLoop=1;jettySize=auto;html=1;exitX=0;exitY=0;exitDx=0;exitDy=0;fontSize=18;endArrow=none;endFill=0;" edge="1" parent="1" source="G6zWwBHuISHWSXFcCj6n-14">
          <mxGeometry relative="1" as="geometry">
            <mxPoint x="170" y="2220" as="targetPoint" />
          </mxGeometry>
        </mxCell>
        <mxCell id="G6zWwBHuISHWSXFcCj6n-14" value="Consulter des messages par les utilisateurs selon le type d&#39;evenemts" style="ellipse;whiteSpace=wrap;html=1;" vertex="1" parent="1">
          <mxGeometry x="366.5" y="2400" width="260" height="80" as="geometry" />
        </mxCell>
        <mxCell id="G6zWwBHuISHWSXFcCj6n-15" style="edgeStyle=orthogonalEdgeStyle;rounded=0;orthogonalLoop=1;jettySize=auto;html=1;exitX=0.5;exitY=0;exitDx=0;exitDy=0;endArrow=block;endFill=0;" edge="1" parent="1" source="G6zWwBHuISHWSXFcCj6n-16" target="G6zWwBHuISHWSXFcCj6n-14">
          <mxGeometry relative="1" as="geometry" />
        </mxCell>
        <mxCell id="G6zWwBHuISHWSXFcCj6n-16" value="&lt;div&gt;Filtrer les messages selons type de message (Feedback/reclamation)&lt;/div&gt;" style="ellipse;whiteSpace=wrap;html=1;" vertex="1" parent="1">
          <mxGeometry x="400" y="2520" width="270" height="80" as="geometry" />
        </mxCell>
        <mxCell id="G6zWwBHuISHWSXFcCj6n-17" value="&lt;div&gt;Ajouter Portier au evenement&lt;/div&gt;&lt;div&gt;&lt;br&gt;&lt;/div&gt;" style="ellipse;whiteSpace=wrap;html=1;" vertex="1" parent="1">
          <mxGeometry x="417" y="2650" width="193" height="80" as="geometry" />
        </mxCell>
        <mxCell id="G6zWwBHuISHWSXFcCj6n-18" value="S&#39;authentifier" style="html=1;overflow=block;blockSpacing=1;whiteSpace=wrap;ellipse;fontSize=13;spacing=3.8;strokeColor=#5e5e5e;strokeOpacity=100;rounded=1;absoluteArcSize=1;arcSize=9;strokeWidth=2.3;lucidId=XvitAHHM73nt;" vertex="1" parent="1">
          <mxGeometry x="1250" y="2330" width="120" height="90" as="geometry" />
        </mxCell>
        <mxCell id="G6zWwBHuISHWSXFcCj6n-19" value="Deconnecter" style="html=1;overflow=block;blockSpacing=1;whiteSpace=wrap;ellipse;fontSize=13;spacing=3.8;strokeColor=#5e5e5e;strokeOpacity=100;rounded=1;absoluteArcSize=1;arcSize=9;strokeWidth=2.3;lucidId=XvitmW9DInrr;" vertex="1" parent="1">
          <mxGeometry x="1390" y="2170" width="120" height="90" as="geometry" />
        </mxCell>
        <mxCell id="G6zWwBHuISHWSXFcCj6n-20" value="&lt;font style=&quot;font-size: 14px;&quot;&gt;Selon Age&lt;/font&gt;" style="ellipse;whiteSpace=wrap;html=1;fontSize=24;" vertex="1" parent="1">
          <mxGeometry x="940" y="1830" width="120" height="80" as="geometry" />
        </mxCell>
        <mxCell id="G6zWwBHuISHWSXFcCj6n-21" value="&lt;font style=&quot;font-size: 14px;&quot;&gt;Selon Region&lt;/font&gt;" style="ellipse;whiteSpace=wrap;html=1;fontSize=24;" vertex="1" parent="1">
          <mxGeometry x="795" y="1760" width="160" height="100" as="geometry" />
        </mxCell>
        <mxCell id="G6zWwBHuISHWSXFcCj6n-22" value="&lt;div&gt;&lt;font style=&quot;font-size: 14px;&quot;&gt;Selon &lt;font style=&quot;font-size: 14px;&quot;&gt;Mois&lt;/font&gt;&lt;/font&gt;&lt;/div&gt;&lt;div&gt;&lt;font style=&quot;font-size: 24px;&quot; size=&quot;3&quot;&gt;&lt;br&gt;&lt;/font&gt;&lt;/div&gt;" style="ellipse;whiteSpace=wrap;html=1;fontSize=24;" vertex="1" parent="1">
          <mxGeometry x="940" y="1920" width="150" height="90" as="geometry" />
        </mxCell>
        <mxCell id="G6zWwBHuISHWSXFcCj6n-23" value="&amp;lt;&amp;lt;extend&amp;gt;&amp;gt;" style="html=1;verticalAlign=bottom;labelBackgroundColor=none;endArrow=open;endFill=0;dashed=1;rounded=0;fontSize=14;entryX=0;entryY=1;entryDx=0;entryDy=0;exitX=0.623;exitY=-0.022;exitDx=0;exitDy=0;exitPerimeter=0;" edge="1" parent="1" source="G6zWwBHuISHWSXFcCj6n-4" target="G6zWwBHuISHWSXFcCj6n-21">
          <mxGeometry width="160" relative="1" as="geometry">
            <mxPoint x="710" y="1930" as="sourcePoint" />
            <mxPoint x="870" y="1930" as="targetPoint" />
          </mxGeometry>
        </mxCell>
        <mxCell id="G6zWwBHuISHWSXFcCj6n-24" value="&amp;lt;&amp;lt;extend&amp;gt;&amp;gt;" style="html=1;verticalAlign=bottom;labelBackgroundColor=none;endArrow=open;endFill=0;dashed=1;rounded=0;fontSize=14;entryX=0.028;entryY=0.788;entryDx=0;entryDy=0;exitX=1;exitY=0;exitDx=0;exitDy=0;entryPerimeter=0;" edge="1" parent="1" source="G6zWwBHuISHWSXFcCj6n-4" target="G6zWwBHuISHWSXFcCj6n-20">
          <mxGeometry width="160" relative="1" as="geometry">
            <mxPoint x="718.3220000000001" y="1978.0199999999995" as="sourcePoint" />
            <mxPoint x="828.4314575050767" y="1855.355339059327" as="targetPoint" />
          </mxGeometry>
        </mxCell>
        <mxCell id="G6zWwBHuISHWSXFcCj6n-25" value="&amp;lt;&amp;lt;extend&amp;gt;&amp;gt;" style="html=1;verticalAlign=bottom;labelBackgroundColor=none;endArrow=open;endFill=0;dashed=1;rounded=0;fontSize=14;entryX=0.056;entryY=0.756;entryDx=0;entryDy=0;exitX=1;exitY=0.5;exitDx=0;exitDy=0;entryPerimeter=0;" edge="1" parent="1" source="G6zWwBHuISHWSXFcCj6n-4" target="G6zWwBHuISHWSXFcCj6n-22">
          <mxGeometry width="160" relative="1" as="geometry">
            <mxPoint x="728.3220000000001" y="1988.0199999999995" as="sourcePoint" />
            <mxPoint x="838.4314575050767" y="1865.355339059327" as="targetPoint" />
          </mxGeometry>
        </mxCell>
        <mxCell id="G6zWwBHuISHWSXFcCj6n-26" value="&amp;lt;&amp;lt;include&amp;gt;&amp;gt;" style="html=1;verticalAlign=bottom;labelBackgroundColor=none;endArrow=open;endFill=0;dashed=1;rounded=0;fontSize=14;entryX=0.375;entryY=0.015;entryDx=0;entryDy=0;entryPerimeter=0;" edge="1" parent="1" target="G6zWwBHuISHWSXFcCj6n-18">
          <mxGeometry width="160" relative="1" as="geometry">
            <mxPoint x="1065" y="2174.17" as="sourcePoint" />
            <mxPoint x="1225" y="2174.17" as="targetPoint" />
          </mxGeometry>
        </mxCell>
        <mxCell id="G6zWwBHuISHWSXFcCj6n-27" value="&amp;lt;&amp;lt;include&amp;gt;&amp;gt;" style="html=1;verticalAlign=bottom;labelBackgroundColor=none;endArrow=open;endFill=0;dashed=1;rounded=0;fontSize=14;exitX=1;exitY=0.5;exitDx=0;exitDy=0;" edge="1" parent="1" source="G6zWwBHuISHWSXFcCj6n-8" target="G6zWwBHuISHWSXFcCj6n-18">
          <mxGeometry width="160" relative="1" as="geometry">
            <mxPoint x="1075" y="2184.17" as="sourcePoint" />
            <mxPoint x="1305" y="2341.3499999999995" as="targetPoint" />
          </mxGeometry>
        </mxCell>
        <mxCell id="G6zWwBHuISHWSXFcCj6n-28" value="&amp;lt;&amp;lt;include&amp;gt;&amp;gt;" style="html=1;verticalAlign=bottom;labelBackgroundColor=none;endArrow=open;endFill=0;dashed=1;rounded=0;fontSize=14;exitX=1;exitY=0.5;exitDx=0;exitDy=0;entryX=0;entryY=0.5;entryDx=0;entryDy=0;" edge="1" parent="1" target="G6zWwBHuISHWSXFcCj6n-18">
          <mxGeometry width="160" relative="1" as="geometry">
            <mxPoint x="1010" y="2390" as="sourcePoint" />
            <mxPoint x="1196.3343685400055" y="2459.875388202502" as="targetPoint" />
          </mxGeometry>
        </mxCell>
        <mxCell id="G6zWwBHuISHWSXFcCj6n-29" value="&amp;lt;&amp;lt;include&amp;gt;&amp;gt;" style="html=1;verticalAlign=bottom;labelBackgroundColor=none;endArrow=open;endFill=0;dashed=1;rounded=0;fontSize=14;exitX=1;exitY=0.5;exitDx=0;exitDy=0;entryX=0;entryY=1;entryDx=0;entryDy=0;" edge="1" parent="1" target="G6zWwBHuISHWSXFcCj6n-18">
          <mxGeometry width="160" relative="1" as="geometry">
            <mxPoint x="613.6700000000001" y="2690" as="sourcePoint" />
            <mxPoint x="800.0043685400055" y="2759.875388202502" as="targetPoint" />
          </mxGeometry>
        </mxCell>
        <mxCell id="G6zWwBHuISHWSXFcCj6n-30" value="&amp;lt;&amp;lt;include&amp;gt;&amp;gt;" style="html=1;verticalAlign=bottom;labelBackgroundColor=none;endArrow=open;endFill=0;dashed=1;rounded=0;fontSize=14;exitX=1;exitY=0.5;exitDx=0;exitDy=0;entryX=0;entryY=1;entryDx=0;entryDy=0;" edge="1" parent="1" source="G6zWwBHuISHWSXFcCj6n-16">
          <mxGeometry width="160" relative="1" as="geometry">
            <mxPoint x="606.1" y="2673.18" as="sourcePoint" />
            <mxPoint x="1260.0035931288076" y="2389.9998051533935" as="targetPoint" />
          </mxGeometry>
        </mxCell>
        <mxCell id="G6zWwBHuISHWSXFcCj6n-31" value="&amp;lt;&amp;lt;extend&amp;gt;&amp;gt;" style="html=1;verticalAlign=bottom;labelBackgroundColor=none;endArrow=open;endFill=0;dashed=1;rounded=0;fontSize=14;entryX=1;entryY=0;entryDx=0;entryDy=0;exitX=0.25;exitY=1;exitDx=0;exitDy=0;exitPerimeter=0;" edge="1" parent="1" source="G6zWwBHuISHWSXFcCj6n-19" target="G6zWwBHuISHWSXFcCj6n-18">
          <mxGeometry width="160" relative="1" as="geometry">
            <mxPoint x="1430" y="2250" as="sourcePoint" />
            <mxPoint x="1590" y="2250" as="targetPoint" />
          </mxGeometry>
        </mxCell>
      </root>
    </mxGraphModel>
  </diagram>
</mxfile>
